<svg xmlns="http://www.w3.org/2000/svg" version="1.1" xmlns:xlink="http://www.w3.org/1999/xlink" xmlns:svgjs="http://svgjs.dev/svgjs" width="2000" height="328" viewBox="0 0 2000 328"><g transform="matrix(1,0,0,1,-1.2121212121213603,-0.9363920880645082)"><svg viewBox="0 0 396 65" data-background-color="#ffffff" preserveAspectRatio="xMidYMid meet" height="328" width="2000" xmlns="http://www.w3.org/2000/svg" xmlns:xlink="http://www.w3.org/1999/xlink"><g id="tight-bounds" transform="matrix(1,0,0,1,0.24000000000003752,0.1855658602665642)"><svg viewBox="0 0 395.5199999999999 64.62886827946686" height="64.62886827946686" width="395.5199999999999"><g><svg viewBox="0 0 544.0524116473842 88.89940243093922" height="64.62886827946686" width="395.5199999999999"><g transform="matrix(1,0,0,1,148.5324116473843,12.286386298342542)"><svg viewBox="0 0 395.52 64.32662983425413" height="64.32662983425413" width="395.52"><g><svg viewBox="0 0 395.52 64.32662983425413" height="64.32662983425413" width="395.52"><g><svg viewBox="0 0 395.52 64.32662983425413" height="64.32662983425413" width="395.52"><g transform="matrix(1,0,0,1,0,0)"><svg width="395.52" viewBox="1.75 -36.25 289.57000732421875 47.099998474121094" height="64.32662983425413" data-palette-color="#1ebbd7"><path d="M25.75-1.4L21.3 0.4Q21.2 0.35 20.85-0.08 20.5-0.5 20.08-1.25 19.65-2 19.25-3.13 18.85-4.25 18.75-5.75L18.75-5.75Q17.9-2.75 16.03-1.23 14.15 0.3 10.95 0.3L10.95 0.3Q8.6 0.3 6.88-0.58 5.15-1.45 4-3.08 2.85-4.7 2.3-7 1.75-9.3 1.75-12.1L1.75-12.1Q1.75-14.95 2.63-17.38 3.5-19.8 5.08-21.55 6.65-23.3 8.85-24.3 11.05-25.3 13.7-25.3L13.7-25.3Q14.6-25.3 15.63-25.2 16.65-25.1 17.65-24.95L17.65-24.95 17.65-36.25 23.35-35.25 23.35-12.05Q23.35-9.05 23.7-7.08 24.05-5.1 24.5-3.88 24.95-2.65 25.33-2.1 25.7-1.55 25.75-1.4L25.75-1.4ZM11.9-3.75Q13.15-3.75 14.2-4.6 15.25-5.45 16.03-6.83 16.8-8.2 17.23-9.95 17.65-11.7 17.65-13.55L17.65-13.55 17.65-20.75Q17.15-20.9 16.15-21.1 15.15-21.3 14.35-21.3L14.35-21.3Q12.45-21.3 11.23-20.65 10-20 9.25-18.85 8.5-17.7 8.2-16.1 7.9-14.5 7.9-12.6L7.9-12.6Q7.9-10.85 8-9.25 8.1-7.65 8.53-6.43 8.95-5.2 9.75-4.48 10.55-3.75 11.9-3.75L11.9-3.75ZM35.3 0.2Q32.65 0.2 31.25-1.38 29.85-2.95 29.85-5.45L29.85-5.45 29.85-24.9 35.55-24.9 35.55-5.95Q35.55-4.8 35.9-4.4 36.25-4 36.95-4L36.95-4Q37.15-4 37.37-4 37.6-4 37.8-4.05L37.8-4.05Q38-4.05 38.25-4.1L38.25-4.1 38.85-0.5Q38.5-0.3 37.95-0.15L37.95-0.15Q37.5 0 36.82 0.1 36.15 0.2 35.3 0.2L35.3 0.2ZM32.8-36Q34.4-36 35.25-35.05 36.1-34.1 36.1-32.6L36.1-32.6Q36.1-31.1 35.22-30.1 34.35-29.1 32.65-29.1L32.65-29.1Q31.05-29.1 30.17-30.08 29.3-31.05 29.3-32.45L29.3-32.45Q29.3-34 30.17-35 31.05-36 32.8-36L32.8-36ZM45.2 8.75L46.59 4.4Q47.34 4.7 48.2 5.03 49.05 5.35 49.99 5.65 50.95 5.95 51.92 6.15 52.89 6.35 53.84 6.35L53.84 6.35Q56.64 6.35 57.89 4.67 59.14 3 59.14 0.35L59.14 0.35Q59.14-2.25 58.05-4.9L58.05-4.9Q57.2-2.35 55.37-1.03 53.55 0.3 50.55 0.3L50.55 0.3Q48.2 0.3 46.47-0.58 44.74-1.45 43.59-3.08 42.45-4.7 41.89-7 41.34-9.3 41.34-12.1L41.34-12.1Q41.34-14.95 42.22-17.38 43.09-19.8 44.67-21.55 46.24-23.3 48.45-24.3 50.64-25.3 53.3-25.3L53.3-25.3Q54.49-25.3 55.87-25.15 57.25-25 58.57-24.78 59.89-24.55 61.07-24.3 62.25-24.05 63.09-23.85L63.09-23.85 62.84-10.1Q62.8-8.6 63.02-7.35 63.25-6.1 63.55-4.88 63.84-3.65 64.09-2.4 64.34-1.15 64.34 0.35L64.34 0.35Q64.34 5.65 61.64 8.25 58.95 10.85 54.34 10.85L54.34 10.85Q52.84 10.85 51.34 10.58 49.84 10.3 48.57 9.95 47.3 9.6 46.39 9.25 45.49 8.9 45.2 8.75L45.2 8.75ZM51.49-3.7Q52.7-3.7 53.72-4.5 54.74-5.3 55.55-6.63 56.34-7.95 56.8-9.65 57.25-11.35 57.25-13.15L57.25-13.15 57.25-20.75Q56.75-20.9 55.75-21.1 54.74-21.3 53.95-21.3L53.95-21.3Q52.05-21.3 50.82-20.65 49.59-20 48.84-18.85 48.09-17.7 47.8-16.1 47.49-14.5 47.49-12.6L47.49-12.6Q47.49-10.85 47.59-9.25 47.7-7.65 48.12-6.4 48.55-5.15 49.34-4.42 50.14-3.7 51.49-3.7L51.49-3.7ZM74.64 0.2Q71.99 0.2 70.59-1.38 69.19-2.95 69.19-5.45L69.19-5.45 69.19-24.9 74.89-24.9 74.89-5.95Q74.89-4.8 75.24-4.4 75.59-4 76.29-4L76.29-4Q76.49-4 76.72-4 76.94-4 77.14-4.05L77.14-4.05Q77.34-4.05 77.59-4.1L77.59-4.1 78.19-0.5Q77.84-0.3 77.29-0.15L77.29-0.15Q76.84 0 76.17 0.1 75.49 0.2 74.64 0.2L74.64 0.2ZM72.14-36Q73.74-36 74.59-35.05 75.44-34.1 75.44-32.6L75.44-32.6Q75.44-31.1 74.57-30.1 73.69-29.1 71.99-29.1L71.99-29.1Q70.39-29.1 69.52-30.08 68.64-31.05 68.64-32.45L68.64-32.45Q68.64-34 69.52-35 70.39-36 72.14-36L72.14-36ZM116.39 0L110.74 0 110.74-16.3Q110.74-18.4 110.09-19.63 109.44-20.85 107.84-20.85L107.84-20.85Q106.89-20.85 105.91-20.33 104.94-19.8 104.14-18.8 103.34-17.8 102.84-16.4 102.34-15 102.34-13.3L102.34-13.3 102.34 0 96.69 0 96.69-16.3Q96.69-18.4 96.04-19.63 95.39-20.85 93.79-20.85L93.79-20.85Q92.79-20.85 91.81-20.28 90.84-19.7 90.06-18.6 89.29-17.5 88.81-15.93 88.34-14.35 88.34-12.4L88.34-12.4 88.34 0 82.64 0 82.64-12.6Q82.64-15.6 82.24-17.63 81.84-19.65 81.39-20.9L81.39-20.9Q80.84-22.35 80.19-23.25L80.19-23.25 84.69-25.05Q85.19-24.5 85.69-23.7L85.69-23.7Q86.09-23 86.49-21.98 86.89-20.95 87.14-19.65L87.14-19.65Q88.39-22.65 90.66-23.98 92.94-25.3 95.49-25.3L95.49-25.3Q98.04-25.3 99.47-24 100.89-22.7 101.59-20.65L101.59-20.65Q102.94-23.15 105.06-24.23 107.19-25.3 109.54-25.3L109.54-25.3Q111.49-25.3 112.81-24.68 114.14-24.05 114.91-22.93 115.69-21.8 116.04-20.23 116.39-18.65 116.39-16.7L116.39-16.7 116.39 0ZM142.74-23.85L142.74-12.05Q142.74-9.05 143.11-7.03 143.49-5 143.94-3.75L143.94-3.75Q144.49-2.25 145.14-1.4L145.14-1.4 140.69 0.4Q140.04-0.25 139.49-1.15L139.49-1.15Q139.04-1.95 138.64-3.08 138.24-4.2 138.14-5.75L138.14-5.75Q137.29-2.75 135.41-1.23 133.54 0.3 130.34 0.3L130.34 0.3Q127.99 0.3 126.26-0.58 124.54-1.45 123.39-3.08 122.24-4.7 121.69-7 121.14-9.3 121.14-12.1L121.14-12.1Q121.14-14.95 122.01-17.38 122.89-19.8 124.46-21.55 126.04-23.3 128.24-24.3 130.44-25.3 133.09-25.3L133.09-25.3Q134.59-25.3 136.21-25.08 137.84-24.85 139.24-24.6 140.64-24.35 141.61-24.13 142.59-23.9 142.74-23.85L142.74-23.85ZM131.29-3.7Q132.54-3.7 133.59-4.55 134.64-5.4 135.41-6.78 136.19-8.15 136.61-9.93 137.04-11.7 137.04-13.55L137.04-13.55 137.04-20.75Q136.54-20.9 135.54-21.1 134.54-21.3 133.74-21.3L133.74-21.3Q131.84-21.3 130.61-20.65 129.39-20 128.64-18.85 127.89-17.7 127.59-16.1 127.29-14.5 127.29-12.6L127.29-12.6Q127.29-10.85 127.39-9.25 127.49-7.65 127.91-6.4 128.34-5.15 129.14-4.42 129.94-3.7 131.29-3.7L131.29-3.7ZM171.94-1.4L167.49 0.4Q167.38 0.35 167.03-0.08 166.69-0.5 166.26-1.25 165.84-2 165.44-3.13 165.03-4.25 164.94-5.75L164.94-5.75Q164.09-2.75 162.21-1.23 160.34 0.3 157.13 0.3L157.13 0.3Q154.78 0.3 153.06-0.58 151.34-1.45 150.19-3.08 149.03-4.7 148.49-7 147.94-9.3 147.94-12.1L147.94-12.1Q147.94-14.95 148.81-17.38 149.69-19.8 151.26-21.55 152.84-23.3 155.03-24.3 157.24-25.3 159.88-25.3L159.88-25.3Q160.78-25.3 161.81-25.2 162.84-25.1 163.84-24.95L163.84-24.95 163.84-36.25 169.53-35.25 169.53-12.05Q169.53-9.05 169.88-7.08 170.24-5.1 170.69-3.88 171.13-2.65 171.51-2.1 171.88-1.55 171.94-1.4L171.94-1.4ZM158.09-3.75Q159.34-3.75 160.38-4.6 161.44-5.45 162.21-6.83 162.99-8.2 163.41-9.95 163.84-11.7 163.84-13.55L163.84-13.55 163.84-20.75Q163.34-20.9 162.34-21.1 161.34-21.3 160.53-21.3L160.53-21.3Q158.63-21.3 157.41-20.65 156.19-20 155.44-18.85 154.69-17.7 154.38-16.1 154.09-14.5 154.09-12.6L154.09-12.6Q154.09-10.85 154.19-9.25 154.28-7.65 154.71-6.43 155.13-5.2 155.94-4.48 156.74-3.75 158.09-3.75L158.09-3.75ZM176.03 0L176.03-33.85Q176.38-33.85 177.63-33.88 178.88-33.9 180.43-33.9 181.98-33.9 183.53-33.93 185.08-33.95 186.08-33.95L186.08-33.95Q192.18-33.95 195.08-31.23 197.98-28.5 197.98-23.75L197.98-23.75Q197.98-21.45 197.18-19.53 196.38-17.6 194.81-16.2 193.23-14.8 190.91-14.03 188.58-13.25 185.48-13.25L185.48-13.25 181.98-13.25 181.98 0 176.03 0ZM181.98-29.65L181.98-17.7 185.83-17.7Q188.98-17.7 190.33-19.35 191.68-21 191.68-23.55L191.68-23.55Q191.68-24.7 191.38-25.8 191.08-26.9 190.36-27.78 189.63-28.65 188.41-29.18 187.18-29.7 185.33-29.7L185.33-29.7Q184.23-29.7 183.41-29.7 182.58-29.7 181.98-29.65L181.98-29.65ZM220.38-23.85L220.38-12.05Q220.38-9.05 220.76-7.03 221.13-5 221.58-3.75L221.58-3.75Q222.13-2.25 222.78-1.4L222.78-1.4 218.33 0.4Q217.68-0.25 217.13-1.15L217.13-1.15Q216.68-1.95 216.28-3.08 215.88-4.2 215.78-5.75L215.78-5.75Q214.93-2.75 213.06-1.23 211.18 0.3 207.98 0.3L207.98 0.3Q205.63 0.3 203.91-0.58 202.18-1.45 201.03-3.08 199.88-4.7 199.33-7 198.78-9.3 198.78-12.1L198.78-12.1Q198.78-14.95 199.66-17.38 200.53-19.8 202.11-21.55 203.68-23.3 205.88-24.3 208.08-25.3 210.73-25.3L210.73-25.3Q212.23-25.3 213.86-25.08 215.48-24.85 216.88-24.6 218.28-24.35 219.26-24.13 220.23-23.9 220.38-23.85L220.38-23.85ZM208.93-3.7Q210.18-3.7 211.23-4.55 212.28-5.4 213.06-6.78 213.83-8.15 214.26-9.93 214.68-11.7 214.68-13.55L214.68-13.55 214.68-20.75Q214.18-20.9 213.18-21.1 212.18-21.3 211.38-21.3L211.38-21.3Q209.48-21.3 208.26-20.65 207.03-20 206.28-18.85 205.53-17.7 205.23-16.1 204.93-14.5 204.93-12.6L204.93-12.6Q204.93-10.85 205.03-9.25 205.13-7.65 205.56-6.4 205.98-5.15 206.78-4.42 207.58-3.7 208.93-3.7L208.93-3.7ZM237.23-19.7Q236.33-19.7 235.43-19.25 234.53-18.8 233.83-18.03 233.13-17.25 232.68-16.15 232.23-15.05 232.23-13.7L232.23-13.7 232.23 0 226.53 0 226.53-12.6Q226.53-15.6 226.13-17.63 225.73-19.65 225.28-20.9L225.28-20.9Q224.73-22.35 224.08-23.25L224.08-23.25 228.58-25.05Q229.03-24.5 229.53-23.7L229.53-23.7Q229.93-23 230.33-22.05 230.73-21.1 230.98-19.8L230.98-19.8Q231.98-22.7 233.88-23.98 235.78-25.25 238.18-25.25L238.18-25.25Q239.33-25.25 240.33-24.98 241.33-24.7 241.28-24.7L241.28-24.7 239.68-19.15Q239.73-19.15 239.1-19.43 238.48-19.7 237.23-19.7L237.23-19.7ZM263.13-23.85L263.13-12.05Q263.13-9.05 263.5-7.03 263.88-5 264.33-3.75L264.33-3.75Q264.88-2.25 265.53-1.4L265.53-1.4 261.08 0.4Q260.43-0.25 259.88-1.15L259.88-1.15Q259.43-1.95 259.03-3.08 258.63-4.2 258.53-5.75L258.53-5.75Q257.68-2.75 255.8-1.23 253.93 0.3 250.73 0.3L250.73 0.3Q248.38 0.3 246.65-0.58 244.93-1.45 243.78-3.08 242.63-4.7 242.08-7 241.53-9.3 241.53-12.1L241.53-12.1Q241.53-14.95 242.4-17.38 243.28-19.8 244.85-21.55 246.43-23.3 248.63-24.3 250.83-25.3 253.48-25.3L253.48-25.3Q254.98-25.3 256.6-25.08 258.23-24.85 259.63-24.6 261.03-24.35 262-24.13 262.98-23.9 263.13-23.85L263.13-23.85ZM251.68-3.7Q252.93-3.7 253.98-4.55 255.03-5.4 255.8-6.78 256.58-8.15 257-9.93 257.43-11.7 257.43-13.55L257.43-13.55 257.43-20.75Q256.93-20.9 255.93-21.1 254.93-21.3 254.13-21.3L254.13-21.3Q252.23-21.3 251-20.65 249.78-20 249.03-18.85 248.28-17.7 247.98-16.1 247.68-14.5 247.68-12.6L247.68-12.6Q247.68-10.85 247.78-9.25 247.88-7.65 248.3-6.4 248.73-5.15 249.53-4.42 250.33-3.7 251.68-3.7L251.68-3.7ZM272.17 8.75L273.57 4.4Q274.32 4.7 275.17 5.03 276.02 5.35 276.97 5.65 277.92 5.95 278.9 6.15 279.87 6.35 280.82 6.35L280.82 6.35Q283.62 6.35 284.87 4.67 286.12 3 286.12 0.35L286.12 0.35Q286.12-2.25 285.02-4.9L285.02-4.9Q284.17-2.35 282.35-1.03 280.52 0.3 277.52 0.3L277.52 0.3Q275.17 0.3 273.45-0.58 271.72-1.45 270.57-3.08 269.42-4.7 268.87-7 268.32-9.3 268.32-12.1L268.32-12.1Q268.32-14.95 269.2-17.38 270.07-19.8 271.65-21.55 273.22-23.3 275.42-24.3 277.62-25.3 280.27-25.3L280.27-25.3Q281.47-25.3 282.85-25.15 284.22-25 285.55-24.78 286.87-24.55 288.05-24.3 289.22-24.05 290.07-23.85L290.07-23.85 289.82-10.1Q289.77-8.6 290-7.35 290.22-6.1 290.52-4.88 290.82-3.65 291.07-2.4 291.32-1.15 291.32 0.35L291.32 0.35Q291.32 5.65 288.62 8.25 285.92 10.85 281.32 10.85L281.32 10.85Q279.82 10.85 278.32 10.58 276.82 10.3 275.55 9.95 274.27 9.6 273.37 9.25 272.47 8.9 272.17 8.75L272.17 8.75ZM278.47-3.7Q279.67-3.7 280.7-4.5 281.72-5.3 282.52-6.63 283.32-7.95 283.77-9.65 284.22-11.35 284.22-13.15L284.22-13.15 284.22-20.75Q283.72-20.9 282.72-21.1 281.72-21.3 280.92-21.3L280.92-21.3Q279.02-21.3 277.8-20.65 276.57-20 275.82-18.85 275.07-17.7 274.77-16.1 274.47-14.5 274.47-12.6L274.47-12.6Q274.47-10.85 274.57-9.25 274.67-7.65 275.1-6.4 275.52-5.15 276.32-4.42 277.12-3.7 278.47-3.7L278.47-3.7Z" opacity="1" transform="matrix(1,0,0,1,0,0)" fill="#1ebbd7" class="undefined-text-0" data-fill-palette-color="primary" id="text-0"></path></svg></g></svg></g></svg></g></svg></g><g><svg viewBox="0 0 133.3464381826329 88.89940243093922" height="88.89940243093922" width="133.3464381826329"><g><svg version="1.1" xmlns="http://www.w3.org/2000/svg" xmlns:xlink="http://www.w3.org/1999/xlink" x="0" y="0" viewBox="0 16.666000366210938 100 66.66799926757812" enable-background="new 0 16.666 100 66.668" xml:space="preserve" width="133.3464381826329" height="88.89940243093922" class="icon-icon-0" data-fill-palette-color="accent" id="icon-0"><path d="M73.334 36.667c0 0-4.854 5.123-8.979 9.479l-17.689-29.48L35 40.001l-10-10L0 83.334h100L73.334 36.667zM26.002 35.717l6.643 6.641 3.27 3.271 2.068-4.137 8.951-17.903 4.477 19.334-3.439 6.024-4.969-4.967-5 8.334-4.85-4.853-5.102 6.802-7.727-6.438L26.002 35.717zM5.242 80.001l13.621-29.056 9.75 8.125 4.9-6.532 5.148 5.149 4.998-8.334 5.035 5.033 3.82-6.686L60 80.001H5.242z" fill="#1ebbd7" data-fill-palette-color="accent"></path></svg></g></svg></g></svg></g><defs></defs></svg><rect width="395.5199999999999" height="64.62886827946686" fill="none" stroke="none" visibility="hidden"></rect></g></svg></g></svg>